<mxfile host="app.diagrams.net" modified="2024-04-25T19:59:32.124Z" agent="Mozilla/5.0 (Windows NT 10.0; Win64; x64) AppleWebKit/537.36 (KHTML, like Gecko) Chrome/122.0.0.0 Safari/537.36" etag="KHzgJIOCYjLKBi3dLoJH" version="24.3.0" type="device">
  <diagram name="Сторінка-1" id="kfHh13zZOGZ2oBEd84RB">
    <mxGraphModel dx="989" dy="532" grid="1" gridSize="10" guides="1" tooltips="1" connect="1" arrows="1" fold="1" page="1" pageScale="1" pageWidth="827" pageHeight="1169" math="0" shadow="0">
      <root>
        <mxCell id="0" />
        <mxCell id="1" parent="0" />
        <mxCell id="emvur4KdoLsaAXeoexhO-1" value="" style="shape=folder;fontStyle=1;spacingTop=10;tabWidth=101;tabHeight=30;tabPosition=left;html=1;whiteSpace=wrap;" vertex="1" parent="1">
          <mxGeometry x="219" y="200" width="390" height="470" as="geometry" />
        </mxCell>
        <mxCell id="emvur4KdoLsaAXeoexhO-2" value="Їдальня" style="text;html=1;align=center;verticalAlign=middle;resizable=0;points=[];autosize=1;strokeColor=none;fillColor=none;" vertex="1" parent="1">
          <mxGeometry x="230" y="200" width="70" height="30" as="geometry" />
        </mxCell>
        <mxCell id="emvur4KdoLsaAXeoexhO-3" value="Студент" style="shape=umlActor;verticalLabelPosition=bottom;verticalAlign=top;html=1;" vertex="1" parent="1">
          <mxGeometry x="130" y="350" width="30" height="60" as="geometry" />
        </mxCell>
        <mxCell id="emvur4KdoLsaAXeoexhO-21" style="rounded=0;orthogonalLoop=1;jettySize=auto;html=1;endArrow=none;endFill=0;" edge="1" parent="1" source="emvur4KdoLsaAXeoexhO-6" target="emvur4KdoLsaAXeoexhO-11">
          <mxGeometry relative="1" as="geometry" />
        </mxCell>
        <mxCell id="emvur4KdoLsaAXeoexhO-6" value="Касир" style="shape=umlActor;verticalLabelPosition=bottom;verticalAlign=top;html=1;" vertex="1" parent="1">
          <mxGeometry x="640" y="350" width="30" height="60" as="geometry" />
        </mxCell>
        <mxCell id="emvur4KdoLsaAXeoexhO-7" value="Переглянути меню" style="strokeWidth=1;html=1;shape=mxgraph.flowchart.start_1;whiteSpace=wrap;" vertex="1" parent="1">
          <mxGeometry x="364" y="250" width="100" height="60" as="geometry" />
        </mxCell>
        <mxCell id="emvur4KdoLsaAXeoexhO-10" value="Зробити замовлення" style="strokeWidth=1;html=1;shape=mxgraph.flowchart.start_1;whiteSpace=wrap;" vertex="1" parent="1">
          <mxGeometry x="364" y="320" width="100" height="60" as="geometry" />
        </mxCell>
        <mxCell id="emvur4KdoLsaAXeoexhO-11" value="Прийняти замовлення" style="strokeWidth=1;html=1;shape=mxgraph.flowchart.start_1;whiteSpace=wrap;" vertex="1" parent="1">
          <mxGeometry x="364" y="390" width="100" height="60" as="geometry" />
        </mxCell>
        <mxCell id="emvur4KdoLsaAXeoexhO-12" value="Виставити рахунок" style="strokeWidth=1;html=1;shape=mxgraph.flowchart.start_1;whiteSpace=wrap;" vertex="1" parent="1">
          <mxGeometry x="364" y="460" width="100" height="60" as="geometry" />
        </mxCell>
        <mxCell id="emvur4KdoLsaAXeoexhO-13" value="Оплатити рахунок" style="strokeWidth=1;html=1;shape=mxgraph.flowchart.start_1;whiteSpace=wrap;" vertex="1" parent="1">
          <mxGeometry x="364" y="530" width="100" height="60" as="geometry" />
        </mxCell>
        <mxCell id="emvur4KdoLsaAXeoexhO-16" value="Отримати їжу" style="strokeWidth=1;html=1;shape=mxgraph.flowchart.start_1;whiteSpace=wrap;" vertex="1" parent="1">
          <mxGeometry x="364" y="600" width="100" height="60" as="geometry" />
        </mxCell>
        <mxCell id="emvur4KdoLsaAXeoexhO-17" style="rounded=0;orthogonalLoop=1;jettySize=auto;html=1;entryX=0;entryY=0.5;entryDx=0;entryDy=0;entryPerimeter=0;endArrow=none;endFill=0;" edge="1" parent="1" source="emvur4KdoLsaAXeoexhO-3" target="emvur4KdoLsaAXeoexhO-16">
          <mxGeometry relative="1" as="geometry" />
        </mxCell>
        <mxCell id="emvur4KdoLsaAXeoexhO-18" style="rounded=0;orthogonalLoop=1;jettySize=auto;html=1;entryX=0;entryY=0.5;entryDx=0;entryDy=0;entryPerimeter=0;endArrow=none;endFill=0;" edge="1" parent="1" source="emvur4KdoLsaAXeoexhO-3" target="emvur4KdoLsaAXeoexhO-13">
          <mxGeometry relative="1" as="geometry" />
        </mxCell>
        <mxCell id="emvur4KdoLsaAXeoexhO-19" style="rounded=0;orthogonalLoop=1;jettySize=auto;html=1;entryX=0;entryY=0.5;entryDx=0;entryDy=0;entryPerimeter=0;endArrow=none;endFill=0;" edge="1" parent="1" source="emvur4KdoLsaAXeoexhO-3" target="emvur4KdoLsaAXeoexhO-10">
          <mxGeometry relative="1" as="geometry" />
        </mxCell>
        <mxCell id="emvur4KdoLsaAXeoexhO-20" style="rounded=0;orthogonalLoop=1;jettySize=auto;html=1;entryX=0;entryY=0.5;entryDx=0;entryDy=0;entryPerimeter=0;endArrow=none;endFill=0;" edge="1" parent="1" source="emvur4KdoLsaAXeoexhO-3" target="emvur4KdoLsaAXeoexhO-7">
          <mxGeometry relative="1" as="geometry" />
        </mxCell>
        <mxCell id="emvur4KdoLsaAXeoexhO-22" style="rounded=0;orthogonalLoop=1;jettySize=auto;html=1;entryX=1;entryY=0.5;entryDx=0;entryDy=0;entryPerimeter=0;endArrow=none;endFill=0;" edge="1" parent="1" source="emvur4KdoLsaAXeoexhO-6" target="emvur4KdoLsaAXeoexhO-12">
          <mxGeometry relative="1" as="geometry" />
        </mxCell>
      </root>
    </mxGraphModel>
  </diagram>
</mxfile>
